# Blender v2.68 (sub 0) OBJ File: ''
# www.blender.org
v 0.310000 0.310000 0.130538
v 0.310000 0.690000 0.130538
v 0.690000 0.690000 0.130538
v 0.690000 0.310000 0.130538
v 0.310000 0.310000 0.280538
v 0.690000 0.310000 0.280538
v 0.690000 0.690000 0.280538
v 0.310000 0.690000 0.280538
vt 0.765600 0.500000
vt 0.765600 0.671900
vt 0.593800 0.671900
vt 0.593800 0.500000
vt 0.312500 0.796900
vt 0.484400 0.796900
vt 0.484400 0.968800
vt 0.312500 0.968800
vt 0.296900 0.921900
vt 0.125000 0.921900
vt 0.125000 0.859400
vt 0.296900 0.859400
vt 0.125009 0.859471
vt 0.296881 0.859415
vt 0.296881 0.921858
vn 0.000000 0.000000 -1.000000
vn 0.000000 -0.000000 1.000000
vn 0.000000 -1.000000 -0.000000
vn 1.000000 0.000000 0.000000
vn -0.000000 1.000000 0.000000
vn -1.000000 0.000000 0.000000
s off
g pan
f 1/1/1 2/2/1 3/3/1
f 3/3/1 4/4/1 1/1/1
f 5/5/2 6/6/2 7/7/2
f 7/7/2 8/8/2 5/5/2
f 6/9/3 5/10/3 1/11/3
f 4/11/4 3/12/4 7/9/4
f 7/9/4 6/10/4 4/11/4
f 3/11/5 2/12/5 8/9/5
f 8/9/5 7/10/5 3/11/5
f 2/11/6 1/12/6 5/9/6
f 5/9/6 8/10/6 2/11/6
f 1/13/3 4/14/3 6/15/3
v 0.261400 0.419300 0.736200
v 0.420500 0.419300 0.736200
v 0.420500 0.257900 0.736200
v 0.579500 0.419300 0.736200
v 0.579500 0.257900 0.736200
v 0.738600 0.419300 0.736200
v 0.261400 0.580700 0.736200
v 0.420500 0.580700 0.736200
v 0.579500 0.580700 0.736200
v 0.738600 0.580700 0.736200
v 0.420500 0.742100 0.736200
v 0.579500 0.742100 0.736200
v 0.420500 0.419300 0.874500
v 0.579500 0.419300 0.874500
v 0.420500 0.580700 0.874500
v 0.579500 0.580700 0.874500
vt 0.500000 0.390600
vt 0.421900 0.390600
vt 0.421900 0.312500
vt 0.343800 0.390600
vt 0.343800 0.312500
vt 0.265600 0.390600
vt 0.500000 0.468800
vt 0.421900 0.468800
vt 0.343800 0.468800
vt 0.265600 0.468800
vt 0.421900 0.546900
vt 0.343800 0.546900
vn -0.550890 -0.543039 0.633742
vn 0.000000 -0.650675 0.759356
vn 0.550890 -0.543039 0.633742
vn -0.656050 -0.000000 0.754718
vn 0.656050 -0.000000 0.754718
vn -0.550890 0.543039 0.633742
vn 0.000000 0.650675 0.759356
vn 0.550890 0.543039 0.633742
s off
g dust
f 9/16/1 10/17/1 11/18/1
f 11/18/1 10/17/1 12/19/1
f 12/19/1 13/20/1 11/18/1
f 12/19/1 14/21/1 13/20/1
f 9/16/1 15/22/1 16/23/1
f 10/17/1 9/16/1 16/23/1
f 10/17/1 16/23/1 17/24/1
f 17/24/1 12/19/1 10/17/1
f 12/19/1 17/24/1 18/25/1
f 18/25/1 14/21/1 12/19/1
f 15/22/1 19/26/1 16/23/1
f 16/23/1 19/26/1 20/27/1
f 20/27/1 17/24/1 16/23/1
f 17/24/1 20/27/1 18/25/1
f 21/19/7 9/21/7 11/20/7
f 11/20/8 13/18/8 22/17/8
f 22/17/8 21/19/8 11/20/8
f 13/18/9 14/16/9 22/17/9
f 9/21/10 21/19/10 23/24/10
f 15/25/10 9/21/10 23/24/10
f 21/19/2 22/17/2 24/23/2
f 24/23/2 23/24/2 21/19/2
f 22/17/11 14/16/11 18/22/11
f 18/22/11 24/23/11 22/17/11
f 23/24/12 19/27/12 15/25/12
f 23/24/13 24/23/13 20/26/13
f 20/26/13 19/27/13 23/24/13
f 24/23/14 18/26/14 20/22/14
v 0.356500 0.075000 0.827038
v 0.642600 0.075000 0.827038
v 0.642900 0.075000 0.912038
v 0.356200 0.075000 0.912038
v 0.075000 0.642900 0.912038
v 0.075000 0.642600 0.827038
v 0.075000 0.356500 0.827038
v 0.075000 0.356200 0.912038
v 0.356700 0.356700 0.639038
v 0.356700 0.642800 0.639038
v 0.642800 0.642800 0.639038
v 0.642800 0.356700 0.639038
v 0.925000 0.642600 0.827038
v 0.925000 0.356100 0.827038
v 0.356500 0.925000 0.827038
v 0.642600 0.925000 0.827038
v 0.356400 0.156000 0.912038
v 0.356700 0.356700 0.713338
v 0.156000 0.356400 0.912038
v 0.642800 0.156000 0.912038
v 0.642800 0.356700 0.713338
v 0.844000 0.356400 0.912038
v 0.356700 0.642800 0.713338
v 0.156000 0.642800 0.912038
v 0.642800 0.642800 0.713338
v 0.844000 0.642800 0.912038
v 0.356400 0.844000 0.912038
v 0.642800 0.844000 0.912038
v 0.925000 0.356700 0.912038
v 0.925000 0.642900 0.912038
v 0.642900 0.925000 0.912038
v 0.356200 0.925000 0.912038
v 0.925000 0.462500 -0.023062
v 0.925000 0.537500 -0.023062
v 1.000000 0.537500 -0.023062
v 1.000000 0.462500 -0.023062
v 0.925000 0.462500 0.976938
v 1.000000 0.462500 0.976938
v 1.000000 0.537500 0.976938
v 0.925000 0.537500 0.976938
v 0.863000 0.462500 0.219138
v 0.788000 0.462500 0.219138
v 0.863000 0.537500 0.219138
v 0.788000 0.537500 0.219138
v 0.925000 0.462500 0.751238
v 1.000000 0.462500 0.751238
v 1.000000 0.537500 0.751238
v 0.925000 0.537500 0.751238
v 0.850000 0.462500 0.976938
v 0.850000 0.537500 0.976938
v 0.850000 0.537500 0.751238
v 0.850000 0.462500 0.751238
v 0.788000 0.462500 0.503438
v 0.863000 0.462500 0.503438
v 0.863000 0.537500 0.503438
v 0.788000 0.537500 0.503438
v 0.863000 0.537500 0.408638
v 0.863000 0.462500 0.408638
v 0.863000 0.462500 0.313938
v 0.863000 0.537500 0.313938
v 0.788000 0.462500 0.408638
v 0.788000 0.537500 0.408638
v 0.788000 0.537500 0.313938
v 0.788000 0.462500 0.313938
v 0.537500 0.925000 -0.023062
v 0.462500 0.925000 -0.023062
v 0.462500 1.000000 -0.023062
v 0.537500 1.000000 -0.023062
v 0.537500 0.925000 0.976938
v 0.537500 1.000000 0.976938
v 0.462500 1.000000 0.976938
v 0.462500 0.925000 0.976938
v 0.537500 0.863000 0.219138
v 0.537500 0.788000 0.219138
v 0.462500 0.863000 0.219138
v 0.462500 0.788000 0.219138
v 0.537500 0.925000 0.751238
v 0.537500 1.000000 0.751238
v 0.462500 1.000000 0.751238
v 0.462500 0.925000 0.751238
v 0.537500 0.850000 0.976938
v 0.462500 0.850000 0.976938
v 0.462500 0.850000 0.751238
v 0.537500 0.850000 0.751238
v 0.537500 0.788000 0.503438
v 0.537500 0.863000 0.503438
v 0.462500 0.863000 0.503438
v 0.462500 0.788000 0.503438
v 0.462500 0.863000 0.408638
v 0.537500 0.863000 0.408638
v 0.537500 0.863000 0.313938
v 0.462500 0.863000 0.313938
v 0.537500 0.788000 0.408638
v 0.462500 0.788000 0.408638
v 0.462500 0.788000 0.313938
v 0.537500 0.788000 0.313938
v 0.075000 0.537500 -0.023062
v 0.075000 0.462500 -0.023062
v 0.000000 0.462500 -0.023062
v 0.000000 0.537500 -0.023062
v 0.075000 0.537500 0.976938
v 0.000000 0.537500 0.976938
v 0.000000 0.462500 0.976938
v 0.075000 0.462500 0.976938
v 0.137000 0.537500 0.219138
v 0.212000 0.537500 0.219138
v 0.137000 0.462500 0.219138
v 0.212000 0.462500 0.219138
v 0.075000 0.537500 0.751238
v 0.000000 0.537500 0.751238
v 0.000000 0.462500 0.751238
v 0.075000 0.462500 0.751238
v 0.150000 0.537500 0.976938
v 0.150000 0.462500 0.976938
v 0.150000 0.462500 0.751238
v 0.150000 0.537500 0.751238
v 0.212000 0.537500 0.503438
v 0.137000 0.537500 0.503438
v 0.137000 0.462500 0.503438
v 0.212000 0.462500 0.503438
v 0.137000 0.462500 0.408638
v 0.137000 0.537500 0.408638
v 0.137000 0.537500 0.313938
v 0.137000 0.462500 0.313938
v 0.212000 0.537500 0.408638
v 0.212000 0.462500 0.408638
v 0.212000 0.462500 0.313938
v 0.212000 0.537500 0.313938
v 0.462500 0.075000 -0.023062
v 0.537500 0.075000 -0.023062
v 0.537500 0.000000 -0.023062
v 0.462500 0.000000 -0.023062
v 0.462500 0.075000 0.976938
v 0.462500 -0.000000 0.976938
v 0.537500 -0.000000 0.976938
v 0.537500 0.075000 0.976938
v 0.462500 0.137000 0.219138
v 0.462500 0.212000 0.219138
v 0.537500 0.137000 0.219138
v 0.537500 0.212000 0.219138
v 0.462500 0.075000 0.751238
v 0.462500 -0.000000 0.751238
v 0.537500 -0.000000 0.751238
v 0.537500 0.075000 0.751238
v 0.462500 0.150000 0.976938
v 0.537500 0.150000 0.976938
v 0.537500 0.150000 0.751238
v 0.462500 0.150000 0.751238
v 0.462500 0.212000 0.503438
v 0.462500 0.137000 0.503438
v 0.537500 0.137000 0.503438
v 0.537500 0.212000 0.503438
v 0.537500 0.137000 0.408638
v 0.462500 0.137000 0.408638
v 0.462500 0.137000 0.313938
v 0.537500 0.137000 0.313938
v 0.462500 0.212000 0.408638
v 0.537500 0.212000 0.408638
v 0.537500 0.212000 0.313938
v 0.462500 0.212000 0.313938
vt 0.125000 0.421900
vt 0.250000 0.421900
vt 0.250000 0.468800
vt 0.125000 0.468800
vt 0.250000 0.593800
vt 0.250000 0.718800
vt 0.125000 0.718800
vt 0.125000 0.593800
vt 0.000000 0.718800
vt 0.000000 0.593800
vt 0.250000 0.843800
vt 0.125000 0.843800
vt 0.125000 0.000000
vt 0.125000 0.125000
vt 0.000000 0.125000
vt 0.250000 0.000000
vt 0.250000 0.125000
vt 0.375000 0.125000
vt 0.125000 0.250000
vt -0.000000 0.250000
vt 0.250000 0.250000
vt 0.375000 0.250000
vt 0.125000 0.375000
vt 0.250000 0.375000
vt -0.000000 0.328100
vt -0.000000 0.500000
vt 0.046900 0.500000
vt 0.046900 0.328100
vt 0.375000 0.593800
vt 0.375000 0.718800
vt 0.500000 -0.000000
vt 0.562500 -0.000000
vt 0.562500 0.062500
vt 0.500000 0.062500
vt 0.500000 0.937500
vt 0.500000 0.875000
vt 0.562500 0.875000
vt 0.562500 0.937500
vt 0.562500 0.265600
vt 0.500000 0.265600
vt 0.625000 0.875000
vt 0.625000 0.703100
vt 0.562500 0.703100
vt 0.500000 0.703100
vt 0.750000 0.875000
vt 0.687500 0.875000
vt 0.687500 0.703100
vt 0.750000 0.703100
vt 0.500000 0.500000
vt 0.562500 0.500000
vt 0.562500 0.421900
vt 0.500000 0.421900
vt 0.500000 0.343800
vt 0.562500 0.343800
vt 0.562500 1.000000
vt 0.500000 1.000000
vt 0.625000 0.500000
vt 0.562500 0.437500
vt 0.625000 0.437500
vt 0.625000 0.265600
vt 0.625000 0.343800
vt 0.890600 0.343800
vt 0.890600 0.421900
vn 0.554428 0.000000 -0.832232
vn 0.000000 0.554428 -0.832232
vn 0.575123 0.575123 0.581780
vn 0.000000 0.703557 0.710639
vn -0.573880 0.576171 0.581970
vn 0.703557 -0.000000 0.710639
vn -0.702673 -0.000000 0.711513
vn 0.576171 -0.573880 0.581970
vn 0.000000 -0.702673 0.711513
vn -0.574929 -0.574929 0.582162
vn 0.000000 -0.000001 1.000000
vn 0.000001 -0.000001 1.000000
vn -0.000001 -0.000001 1.000000
vn -0.485162 -0.485162 -0.727486
vn 0.483815 -0.486052 -0.727789
vn -0.708232 0.705975 -0.002499
vn -0.708233 0.705974 -0.002491
vn 0.485071 0.485071 -0.727607
vn -0.000000 -0.555109 -0.831778
vn -0.555109 0.000000 -0.831778
vn 0.000000 1.000000 0.000001
vn -0.707105 -0.707105 -0.002496
vn 0.706603 -0.707606 -0.002494
vn 0.705465 -0.708727 0.005003
vn -0.485891 0.484342 -0.727546
vn 0.707105 0.707105 -0.002495
vn 0.870402 -0.000000 0.492341
vn -0.870402 0.000000 -0.492341
vn 0.875155 0.000000 -0.483843
vn -0.875155 0.000000 0.483843
vn 0.000000 0.870402 0.492342
vn 0.000000 -0.870402 -0.492342
vn 0.000000 0.875155 -0.483843
vn 0.000000 -0.875155 0.483843
vn 0.000000 0.000001 -1.000000
vn -0.870402 -0.000000 0.492341
vn 0.870402 0.000000 -0.492341
vn -0.875155 -0.000000 -0.483843
vn 0.875155 -0.000000 0.483843
vn 0.000000 -0.870402 0.492341
vn 0.000000 0.870402 -0.492341
vn 0.000000 -0.875155 -0.483843
vn 0.000000 0.875155 0.483843
vn 0.707107 0.707107 0.000000
vn -0.707107 -0.707107 0.000000
vn 0.707107 -0.707107 0.000000
vn -0.707107 0.707107 0.000000
s off
g calcinator
f 25/28/3 26/29/3 27/30/3
f 28/31/3 25/28/3 27/30/3
f 29/31/6 30/28/6 31/29/6
f 31/29/6 32/30/6 29/31/6
f 33/32/1 34/33/1 35/34/1
f 35/34/1 36/35/1 33/32/1
f 35/34/15 37/36/15 38/37/15
f 38/37/15 36/35/15 35/34/15
f 39/38/16 40/39/16 35/34/16
f 35/34/16 34/33/16 39/38/16
f 41/40/17 42/41/17 43/42/17
f 41/40/18 44/43/18 45/44/18
f 45/44/18 42/41/18 41/40/18
f 44/43/19 46/45/19 45/44/19
f 43/42/20 42/41/20 47/46/20
f 47/46/20 48/47/20 43/42/20
f 42/41/2 45/44/2 49/48/2
f 49/48/2 47/46/2 42/41/2
f 45/44/21 46/45/21 50/49/21
f 50/49/21 49/48/21 45/44/21
f 48/47/22 47/46/22 51/50/22
f 47/46/23 49/48/23 52/51/23
f 52/51/23 51/50/23 47/46/23
f 49/48/24 50/49/24 52/51/24
f 28/29/2 27/28/2 44/50/2
f 44/50/2 41/51/2 28/29/2
f 53/29/2 54/28/2 50/50/2
f 50/50/2 46/51/2 53/29/2
f 55/29/25 56/28/25 51/50/25
f 51/50/25 52/51/25 55/29/25
f 29/29/2 32/28/2 43/50/2
f 43/50/2 48/51/2 29/29/2
f 56/52/2 29/53/2 48/54/2
f 48/54/26 51/55/26 56/52/26
f 52/54/2 50/55/2 54/52/2
f 54/52/27 55/53/27 52/54/27
f 46/54/2 44/55/2 27/52/2
f 27/52/2 53/53/2 46/54/2
f 41/54/2 43/55/2 32/52/2
f 32/52/2 28/53/2 41/54/2
f 33/32/28 25/30/28 31/56/28
f 36/35/29 38/37/29 26/31/29
f 56/31/30 39/28/30 30/29/30
f 30/29/31 29/30/31 56/31/31
f 35/34/32 40/39/32 37/36/32
f 33/32/33 36/35/33 26/31/33
f 26/31/33 25/30/33 33/32/33
f 34/33/34 33/32/34 31/56/34
f 31/56/34 30/57/34 34/33/34
f 54/30/4 53/31/4 38/28/4
f 38/28/4 37/29/4 54/30/4
f 56/30/35 55/31/35 40/28/35
f 40/28/35 39/29/35 56/30/35
f 28/30/36 32/31/36 31/28/36
f 31/28/36 25/29/36 28/30/36
f 53/30/37 27/31/37 26/28/37
f 26/28/38 38/29/38 53/30/38
f 39/38/39 34/33/39 30/57/39
f 55/30/40 54/31/40 37/28/40
f 37/28/40 40/29/40 55/30/40
f 57/58/1 58/59/1 59/60/1
f 59/60/1 60/61/1 57/58/1
f 61/62/2 62/63/2 63/64/2
f 63/64/2 64/65/2 61/62/2
f 60/60/3 65/66/3 66/67/3
f 66/67/3 57/61/3 60/60/3
f 59/60/41 67/66/41 65/67/41
f 65/67/41 60/61/41 59/60/41
f 58/60/5 68/66/5 67/67/5
f 67/67/5 59/61/5 58/60/5
f 57/60/42 66/66/42 68/67/42
f 68/67/42 58/61/42 57/60/42
f 62/64/3 61/68/3 69/69/3
f 69/69/3 70/70/3 62/64/3
f 63/64/4 62/63/4 70/71/4
f 70/71/4 71/70/4 63/64/4
f 64/68/5 63/64/5 71/70/5
f 71/70/5 72/69/5 64/68/5
f 73/72/6 74/73/6 75/74/6
f 75/74/6 76/75/6 73/72/6
f 70/70/3 69/71/3 77/76/3
f 77/76/3 78/77/3 70/70/3
f 71/70/43 70/71/43 78/76/43
f 78/76/43 79/77/43 71/70/43
f 72/70/5 71/71/5 79/76/5
f 79/76/5 80/77/5 72/70/5
f 69/70/44 72/71/44 80/76/44
f 80/76/44 77/77/44 69/70/44
f 81/78/4 82/79/4 83/80/4
f 83/80/4 84/81/4 81/78/4
f 85/78/6 86/79/6 87/80/6
f 87/80/6 88/81/6 85/78/6
f 61/62/2 64/65/2 74/82/2
f 74/82/2 73/83/2 61/62/2
f 64/68/5 72/69/5 75/74/5
f 75/74/5 74/73/5 64/68/5
f 72/65/1 69/62/1 76/63/1
f 76/63/1 75/64/1 72/65/1
f 69/69/3 61/68/3 73/73/3
f 73/73/3 76/74/3 69/69/3
f 78/84/3 77/77/3 85/85/3
f 85/85/3 82/86/3 78/84/3
f 66/66/3 65/87/3 83/88/3
f 83/88/3 88/81/3 66/66/3
f 79/77/4 78/76/4 82/79/4
f 82/79/4 81/78/4 79/77/4
f 65/67/4 67/66/4 84/81/4
f 84/81/4 83/80/4 65/67/4
f 80/84/5 79/77/5 81/85/5
f 81/85/5 86/86/5 80/84/5
f 67/66/5 68/87/5 87/88/5
f 87/88/5 84/81/5 67/66/5
f 77/77/6 80/76/6 86/79/6
f 86/79/6 85/78/6 77/77/6
f 68/67/6 66/66/6 88/81/6
f 88/81/6 87/80/6 68/67/6
f 89/58/1 90/59/1 91/60/1
f 91/60/1 92/61/1 89/58/1
f 93/62/2 94/63/2 95/64/2
f 95/64/2 96/65/2 93/62/2
f 92/60/4 97/66/4 98/67/4
f 98/67/4 89/61/4 92/60/4
f 91/60/45 99/66/45 97/67/45
f 97/67/45 92/61/45 91/60/45
f 90/60/6 100/66/6 99/67/6
f 99/67/6 91/61/6 90/60/6
f 89/60/46 98/66/46 100/67/46
f 100/67/46 90/61/46 89/60/46
f 94/64/4 93/68/4 101/69/4
f 101/69/4 102/70/4 94/64/4
f 95/64/5 94/63/5 102/71/5
f 102/71/5 103/70/5 95/64/5
f 96/68/6 95/64/6 103/70/6
f 103/70/6 104/69/6 96/68/6
f 105/72/3 106/73/3 107/74/3
f 107/74/3 108/75/3 105/72/3
f 102/70/4 101/71/4 109/76/4
f 109/76/4 110/77/4 102/70/4
f 103/70/47 102/71/47 110/76/47
f 110/76/47 111/77/47 103/70/47
f 104/70/6 103/71/6 111/76/6
f 111/76/6 112/77/6 104/70/6
f 101/70/48 104/71/48 112/76/48
f 112/76/48 109/77/48 101/70/48
f 113/78/5 114/79/5 115/80/5
f 115/80/5 116/81/5 113/78/5
f 117/78/3 118/79/3 119/80/3
f 119/80/3 120/81/3 117/78/3
f 93/62/2 96/65/2 106/82/2
f 106/82/2 105/83/2 93/62/2
f 96/68/6 104/69/6 107/74/6
f 107/74/6 106/73/6 96/68/6
f 104/65/49 101/62/49 108/63/49
f 108/63/49 107/64/49 104/65/49
f 101/69/4 93/68/4 105/73/4
f 105/73/4 108/74/4 101/69/4
f 110/84/4 109/77/4 117/85/4
f 117/85/4 114/86/4 110/84/4
f 98/66/4 97/87/4 115/88/4
f 115/88/4 120/81/4 98/66/4
f 111/77/5 110/76/5 114/79/5
f 114/79/5 113/78/5 111/77/5
f 97/67/5 99/66/5 116/81/5
f 116/81/5 115/80/5 97/67/5
f 112/84/6 111/77/6 113/85/6
f 113/85/6 118/86/6 112/84/6
f 99/66/6 100/87/6 119/88/6
f 119/88/6 116/81/6 99/66/6
f 109/77/3 112/76/3 118/79/3
f 118/79/3 117/78/3 109/77/3
f 100/67/3 98/66/3 120/81/3
f 120/81/3 119/80/3 100/67/3
f 121/58/1 122/59/1 123/60/1
f 123/60/1 124/61/1 121/58/1
f 125/62/2 126/63/2 127/64/2
f 127/64/2 128/65/2 125/62/2
f 124/60/5 129/66/5 130/67/5
f 130/67/5 121/61/5 124/60/5
f 123/60/50 131/66/50 129/67/50
f 129/67/50 124/61/50 123/60/50
f 122/60/3 132/66/3 131/67/3
f 131/67/3 123/61/3 122/60/3
f 121/60/51 130/66/51 132/67/51
f 132/67/51 122/61/51 121/60/51
f 126/64/5 125/68/5 133/69/5
f 133/69/5 134/70/5 126/64/5
f 127/64/6 126/63/6 134/71/6
f 134/71/6 135/70/6 127/64/6
f 128/68/3 127/64/3 135/70/3
f 135/70/3 136/69/3 128/68/3
f 137/72/4 138/73/4 139/74/4
f 139/74/4 140/75/4 137/72/4
f 134/70/5 133/71/5 141/76/5
f 141/76/5 142/77/5 134/70/5
f 135/70/52 134/71/52 142/76/52
f 142/76/52 143/77/52 135/70/52
f 136/70/3 135/71/3 143/76/3
f 143/76/3 144/77/3 136/70/3
f 133/70/53 136/71/53 144/76/53
f 144/76/53 141/77/53 133/70/53
f 145/78/6 146/79/6 147/80/6
f 147/80/6 148/81/6 145/78/6
f 149/78/4 150/79/4 151/80/4
f 151/80/4 152/81/4 149/78/4
f 125/62/2 128/65/2 138/82/2
f 138/82/2 137/83/2 125/62/2
f 128/68/3 136/69/3 139/74/3
f 139/74/3 138/73/3 128/68/3
f 136/65/1 133/62/1 140/63/1
f 140/63/1 139/64/1 136/65/1
f 133/69/5 125/68/5 137/73/5
f 137/73/5 140/74/5 133/69/5
f 142/84/5 141/77/5 149/85/5
f 149/85/5 146/86/5 142/84/5
f 130/66/5 129/87/5 147/88/5
f 147/88/5 152/81/5 130/66/5
f 143/77/6 142/76/6 146/79/6
f 146/79/6 145/78/6 143/77/6
f 129/67/6 131/66/6 148/81/6
f 148/81/6 147/80/6 129/67/6
f 144/84/3 143/77/3 145/85/3
f 145/85/3 150/86/3 144/84/3
f 131/66/3 132/87/3 151/88/3
f 151/88/3 148/81/3 131/66/3
f 141/77/4 144/76/4 150/79/4
f 150/79/4 149/78/4 141/77/4
f 132/67/4 130/66/4 152/81/4
f 152/81/4 151/80/4 132/67/4
f 153/58/1 154/59/1 155/60/1
f 155/60/1 156/61/1 153/58/1
f 157/62/2 158/63/2 159/64/2
f 159/64/2 160/65/2 157/62/2
f 156/60/6 161/66/6 162/67/6
f 162/67/6 153/61/6 156/60/6
f 155/60/54 163/66/54 161/67/54
f 161/67/54 156/61/54 155/60/54
f 154/60/4 164/66/4 163/67/4
f 163/67/4 155/61/4 154/60/4
f 153/60/55 162/66/55 164/67/55
f 164/67/55 154/61/55 153/60/55
f 158/64/6 157/68/6 165/69/6
f 165/69/6 166/70/6 158/64/6
f 159/64/3 158/63/3 166/71/3
f 166/71/3 167/70/3 159/64/3
f 160/68/4 159/64/4 167/70/4
f 167/70/4 168/69/4 160/68/4
f 169/72/5 170/73/5 171/74/5
f 171/74/5 172/75/5 169/72/5
f 166/70/6 165/71/6 173/76/6
f 173/76/6 174/77/6 166/70/6
f 167/70/56 166/71/56 174/76/56
f 174/76/56 175/77/56 167/70/56
f 168/70/4 167/71/4 175/76/4
f 175/76/4 176/77/4 168/70/4
f 165/70/57 168/71/57 176/76/57
f 176/76/57 173/77/57 165/70/57
f 177/78/3 178/79/3 179/80/3
f 179/80/3 180/81/3 177/78/3
f 181/78/5 182/79/5 183/80/5
f 183/80/5 184/81/5 181/78/5
f 157/62/2 160/65/2 170/82/2
f 170/82/2 169/83/2 157/62/2
f 160/68/4 168/69/4 171/74/4
f 171/74/4 170/73/4 160/68/4
f 168/65/1 165/62/1 172/63/1
f 172/63/1 171/64/1 168/65/1
f 165/69/6 157/68/6 169/73/6
f 169/73/6 172/74/6 165/69/6
f 174/84/6 173/77/6 181/85/6
f 181/85/6 178/86/6 174/84/6
f 162/66/6 161/87/6 179/88/6
f 179/88/6 184/81/6 162/66/6
f 175/77/3 174/76/3 178/79/3
f 178/79/3 177/78/3 175/77/3
f 161/67/3 163/66/3 180/81/3
f 180/81/3 179/80/3 161/67/3
f 176/84/4 175/77/4 177/85/4
f 177/85/4 182/86/4 176/84/4
f 163/66/4 164/87/4 183/88/4
f 183/88/4 180/81/4 163/66/4
f 173/77/5 176/76/5 182/79/5
f 182/79/5 181/78/5 173/77/5
f 164/67/5 162/66/5 184/81/5
f 184/81/5 183/80/5 164/67/5
f 148/89/1 151/90/1 184/78/1
f 184/78/1 179/81/1 148/89/1
f 151/89/58 150/90/58 181/78/58
f 181/78/58 184/81/58 151/89/58
f 150/78/2 145/81/2 178/89/2
f 178/89/2 181/90/2 150/78/2
f 145/78/59 148/81/59 179/89/59
f 179/89/59 178/90/59 145/78/59
f 88/78/1 83/81/1 180/89/1
f 180/89/1 183/90/1 88/78/1
f 83/89/60 82/90/60 177/78/60
f 177/78/60 180/81/60 83/89/60
f 82/89/2 85/90/2 182/78/2
f 182/78/2 177/81/2 82/89/2
f 85/78/61 88/81/61 183/89/61
f 183/89/61 182/90/61 85/78/61
f 84/78/1 87/81/1 120/89/1
f 120/89/1 115/90/1 84/78/1
f 87/89/59 86/90/59 117/78/59
f 117/78/59 120/81/59 87/89/59
f 86/89/2 81/90/2 114/78/2
f 114/78/2 117/81/2 86/89/2
f 81/78/58 84/81/58 115/89/58
f 115/89/58 114/90/58 81/78/58
f 116/78/1 119/81/1 152/89/1
f 152/89/1 147/90/1 116/78/1
f 119/89/60 118/90/60 149/78/60
f 149/78/60 152/81/60 119/89/60
f 118/89/2 113/90/2 146/78/2
f 146/78/2 149/81/2 118/89/2
f 113/78/61 116/81/61 147/89/61
f 147/89/61 146/90/61 113/78/61
