<svg viewBox="0 0 512 512" xmlns="http://www.w3.org/2000/svg">
<path d="m0,0h512v512h-512z"/>
<g transform="matrix(18.68858,0,0,18.68858,-5682.22872,-46287.83377)">
<path d="m306.7611,2481.6624c-1.1228.4093-1.155.6326-1.1955,1.7802l-.3963,12.5231c-.0646,1.4723-.0351,1.7756 1.244,2.3307l9.9394,4.3567c1.0349.4436 1.7084.4097 2.419.1723l9.7357-3.0261c1.1746-.3903 1.3391-.5138 1.3838-1.9702l.4115-13.3869c.0354-.9295-.3041-1.3211-1.0058-1.5849l-10.7448-4.2194c-1.3887-.5719-2.1446-.4939-3.3765-.026z" fill="#fff"/>
<path d="m310.1196,2483.8481c-1.8497-.8094-2.391-1.4705.955-2.6816 5.774-2.09 5.802-2.0864 10.4759-.2703 5.1125,1.9864 7.0479,2.879 3.7292,4.1705-3.9598,1.5411-6.8587,2.4144-9.2187,1.3816z"/>
<path d="m306.5067,2485.6104c.0679-2.0179.1714-2.1939 4.1312-.4297 7.5407,3.3596 7.5195,3.5243 7.0084,10.7362-.4164,5.8757-.4706,5.8781-6.8741,3.1723-3.9141-1.6539-4.6455-2.1856-4.5589-4.7602z"/>
<path d="m318.4207,2499.9056c-.1349,2.0144.4579,1.7786 4.2259.6437 5.9568-1.7944 6.2206-2.0649 6.4409-9.2956 .1873-6.1463.1019-6.5185-5.0061-4.6213-4.6673,1.7336-4.9004,1.918-5.0725,4.4882z"/>
<path d="m312.2526,2489.4081c-.2647,3.1894-3.846.7083-5.1259,3.565-1.7058,3.8075 3.1603,5.2553 6.1751,6.5069 2.6159,1.0859 3.6724-.2604 3.7766-3.5367 .2238-7.0374-4.5028-10.4285-4.8259-6.5352z" fill="#fff" stroke="#000"/>
<path d="m321.5878,2499.576c4.6504.2469 7.3038-3.0751 6.8099-9.939-.233-3.2384-3.7214-3.0391-3.4503.1484 .1265,1.488-1.1418,4.3408-2.939,4.5856-3.5328.4813-3.6875,5.0315-.4206,5.205z" fill="#fff" stroke="#000"/>
<path d="m323.0558,2488.1417c-4,.2245-3.809,2.6829-2.5929,4.2259 2.8247,3.5843 6.7839-4.4611 2.5929-4.2259z" fill="#fff" stroke="#000"/>
<path d="m319.5807,2486.2023c7.7685-1.5203 6.9905-3.892.6753-4.7299-5.8091-.7707-6.1071,5.7929-.6753,4.7299z" fill="#fff" stroke="#000"/>
</g>
</svg>
