<svg viewBox="0 0 512 512" xmlns="http://www.w3.org/2000/svg">
<path d="m0,0h512v512h-512z"/>
<g transform="matrix(18.68858,0,0,18.68858,-7035.28926,-20.33355)">
<path d="m377.6475,10.603c-.2344,7.1942 9.5368,9.0154 12.5602,16.1969 2.8622-7.181 12.3731-9.4352 12.5973-16.1969 .239-7.2086-9.0733-8.5923-12.5973-2.7418-3.5302-6.3864-12.3403-4.0071-12.5602,2.7418z" fill="#fff"/>
<path d="m388.5473,5.6776c1.0493,1.0135 1.3824,2.6042 1.2144,3.2311-1.2026,4.4881-3.5409,5.1838-3.5409,8.7719 0,2.0513 2.0278,3.5592 3.9893,3.5592 2.0056,0 3.9109-1.41 3.9109-3.3576 0-3.4426-2.2964-4.6332-3.4546-8.9555-.1802-.6724-.0292-2.1529 1.0974-3.2492" fill-rule="evenodd"/>
<path d="m393.7046,17.0613c0,1.7352-1.4066,3.1418-3.1418,3.1418s-3.1418-1.4066-3.1418-3.1418 1.4066-3.1418 3.1418-3.1418 3.1418,1.4066 3.1418,3.1418z" fill="#fff" stroke="#000" stroke-width=".9056" transform="matrix(-1.10429,0,0,1.10429,821.47374,-1.45173)"/>
<path d="m393.7046,17.0613c0,1.7352-1.4066,3.1418-3.1418,3.1418s-3.1418-1.4066-3.1418-3.1418 1.4066-3.1418 3.1418-3.1418 3.1418,1.4066 3.1418,3.1418z" transform="matrix(-.77301,0,0,.77301,691.31383,3.1211)"/>
<path d="m393.7046,17.0613c0,1.7352-1.4066,3.1418-3.1418,3.1418s-3.1418-1.4066-3.1418-3.1418 1.4066-3.1418 3.1418-3.1418 3.1418,1.4066 3.1418,3.1418z" fill="#fff" transform="matrix(-.33428,0,0,.40491,518.79531,10.65419)"/>
</g>
</svg>
