<svg viewBox="0 0 512 512" xmlns="http://www.w3.org/2000/svg">
<path d="m0,0h512v512h-512z"/>
<g transform="matrix(18.68858,0,0,18.68858,-1465.1957,-8505.7869)">
<path d="m383.1689,261.873h27.0999v9.0686h-27.0999z" fill="#fff" transform="rotate(45)"/>
<path d="m252.8573-401.2531h27.0999v9.0686h-27.0999z" fill="#fff" transform="matrix(-.70711,.70711,-.70711,-.70711,0,0)"/>
<path d="m102.5305,473.0649c0,4.6863-3.799,8.4853-8.4853,8.4853s-8.4853-3.799-8.4853-8.4853 3.799-8.4853 8.4853-8.4853 8.4853,3.799 8.4853,8.4853z" fill="#fff" stroke="#000" transform="matrix(1.35625,0,0,1.35625,-35.40461,-172.69323)"/>
<path d="m92.1562,459.8438c-5.0059,0-9.0938,4.0566-9.0938,9.0625s4.0879,9.0625 9.0938,9.0625 9.0625-4.0566 9.0625-9.0625-4.0566-9.0625-9.0625-9.0625zm.0312,2.3438c3.7129,1e-05 6.7188,3.0058 6.7188,6.7188s-3.0058,6.7188-6.7188,6.7188-6.7188-3.0058-6.7188-6.7188 3.0058-6.7188 6.7188-6.7188z"/>
<path d="m82.9083,468.9991h18.429" fill="none" stroke="#fff"/>
<path d="m84.1428,464.3918 15.96,9.2145" fill="none" stroke="#fff"/>
<path d="m87.5155,461.0191 9.2145,15.9599" fill="none" stroke="#fff"/>
<path d="m92.1227,459.7846 1e-05,18.429" fill="none" stroke="#fff"/>
<path d="m96.73,461.0191-9.2145,15.96" fill="none" stroke="#fff"/>
<path d="m100.1027,464.3918-15.96,9.2145" fill="none" stroke="#fff"/>
<path d="m97.6691,470.3691c0,3.3927-2.7503,6.143-6.143,6.143s-6.143-2.7503-6.143-6.143 2.7503-6.143 6.143-6.143 6.143,2.7503 6.143,6.143z" fill="none" stroke="#000" stroke-width=".6774" transform="matrix(1.47626,0,0,1.47626,-42.97208,-225.48558)"/>
<path d="m93.8797,469.9723-1.8181,1.3437 2.8663,3.8157-.9277.6989 6.1035,4.3264-2.4631-7.043-.8946.6739-2.8663-3.8157z" fill="#fff" stroke="#000"/>
<path d="m92.1772,457.3632-2.4375,6.9208h1.2188v2.875h2.4062v-2.875h1.2188l-2.4062-6.9208z" fill="#fff" stroke="#000"/>
<path d="m128.8702,436.1186c0,1.2692-1.0289,2.2981-2.2981,2.2981s-2.2981-1.0289-2.2981-2.2981 1.0289-2.2981 2.2981-2.2981 2.2981,1.0289 2.2981,2.2981z" fill="#fff" stroke="#000" transform="translate(-34.3844,32.7775)"/>
</g>
</svg>
