<svg viewBox="0 0 512 512" xmlns="http://www.w3.org/2000/svg">
<path d="m0,0h512v512h-512z"/>
<g transform="matrix(18.68858,0,0,18.68858,-2952.65496,-30617.68109)">
<path d="m157.4729,1637.9117h28.4297v28.4297h-28.4297z" stroke="#888"/>
<path d="m166.3872,1645.3454-1.7368,8.6082 8.2306,4.4552 6.5316-6.2297-4.0776-8.1174z" fill="#fff"/>
<g stroke="#fff" stroke-width=".3772" transform="matrix(-2.29611,1.3258,-1.32562,-2.29628,2671.9564,5266.7471)">
<path d="m132.3902,1653.7244c2.0532,2.051 5.3531,2.0919 7.4571.1311" fill="none" stroke="#fff" stroke-width=".3772"/>
<path d="m135.298,1655.1996c2.6909-1.3629 3.7572-4.651 2.3884-7.3384" fill="none" stroke="#fff" stroke-width=".3772"/>
<path d="m131.4433,1648.4623c2.9499-.4108 5.67,1.6523 6.0776,4.5996" fill="none" stroke="#fff" stroke-width=".3772"/>
<path d="m134.5022,1657.5388c-2.0771-1.6219-2.8142-4.5638-1.5833-6.9884" fill="none" stroke="#fff" stroke-width=".3772"/>
<path d="m136.0773,1650.0581c-3.0983-.4321-5.954,1.7292-6.3806,4.8182" fill="none" stroke="#fff" stroke-width=".3772"/>
</g>
<g stroke="#000" stroke-width=".6862" transform="matrix(-1.4572,0,0,-1.45739,368.26348,4059.2583)">
<path d="m132.4457,1653.7245c2.0699,2.0672 5.4234,2.0649 7.49,0" fill="none" stroke="#000" stroke-width=".6862"/>
<path d="m135.368,1655.1353c2.6079-1.3253 3.6555-4.4187 2.333-7.0236" fill="none" stroke="#000" stroke-width=".6862"/>
<path d="m131.4104,1648.4141c2.9373-.4072 5.6472,1.6485 6.0548,4.583" fill="none" stroke="#000" stroke-width=".6862"/>
<path d="m135.2744,1657.7746c-2.6079-1.3254-3.6447-4.5159-2.3222-7.1208" fill="none" stroke="#000" stroke-width=".6862"/>
<path d="m135.9099,1650.1356c-2.8977-.4015-5.5709,1.6254-5.9731,4.5187" fill="none" stroke="#000" stroke-width=".6862"/>
<path d="m137.1647,1652.6888c0,1.0948-.8874,1.9822-1.9822,1.9822s-1.9822-.8874-1.9822-1.9822 .8874-1.9821 1.9822-1.9821 1.9822.8874 1.9822,1.9821z" fill="#fff" stroke="#000" stroke-width=".5773" transform="matrix(1.18867,0,0,1.18867,-25.83367,-312.05643)"/>
</g>
</g>
</svg>
