# Blender v2.77 (sub 0) OBJ File: 'glass_bell.blend'
# www.blender.org
mtllib glass_bell.mtl
o glass_bell_Dome
v 0.376800 0.660000 0.623200
v 0.623200 0.660000 0.623200
v 0.623200 0.660000 0.376800
v 0.376800 0.660000 0.376800
v 0.225400 0.000000 0.774600
v 0.376800 0.000000 0.869500
v 0.376800 0.534400 0.869500
v 0.225400 0.534400 0.774600
v 0.623200 0.000000 0.869500
v 0.623200 0.534400 0.869500
v 0.774600 0.000000 0.774600
v 0.774600 0.534400 0.774600
v 0.869500 0.000000 0.623200
v 0.869500 0.534400 0.623200
v 0.869500 0.000000 0.376800
v 0.869500 0.534400 0.376800
v 0.774600 0.000000 0.225400
v 0.774600 0.534400 0.225400
v 0.623200 0.000000 0.130500
v 0.623200 0.534400 0.130500
v 0.376800 0.000000 0.130500
v 0.376800 0.534400 0.130500
v 0.225400 0.000000 0.225400
v 0.225400 0.534400 0.225400
v 0.130500 0.000000 0.376800
v 0.130500 0.534400 0.376800
v 0.130500 0.000000 0.623200
v 0.130500 0.534400 0.623200
vt 0.343800 0.625000
vt 0.468800 0.625000
vt 0.468800 0.750000
vt 0.343800 0.750000
vt 0.000000 0.531300
vt 0.156300 0.531300
vt 0.156300 0.843800
vt 0.000000 0.843800
vt 0.000000 0.531300
vt 0.156300 0.531300
vt 0.156300 0.843800
vt 0.000000 0.843800
vt 0.000000 0.531300
vt 0.156300 0.531300
vt 0.156300 0.843800
vt 0.000000 0.843800
vt 0.250000 0.531300
vt 0.343800 0.500000
vt 0.468800 0.500000
vt 0.562500 0.531300
vt 0.000000 0.531300
vt 0.156300 0.531300
vt 0.156300 0.843800
vt 0.000000 0.843800
vt 0.000000 0.531300
vt 0.156300 0.531300
vt 0.156300 0.843800
vt 0.000000 0.843800
vt 0.000000 0.531300
vt 0.156300 0.531300
vt 0.156300 0.843800
vt 0.000000 0.843800
vt 0.593800 0.625000
vt 0.593800 0.750000
vt 0.562500 0.843800
vt 0.000000 0.531300
vt 0.156300 0.531300
vt 0.156300 0.843800
vt 0.000000 0.843800
vt 0.000000 0.531300
vt 0.156300 0.531300
vt 0.156300 0.843800
vt 0.000000 0.843800
vt 0.000000 0.531300
vt 0.156300 0.531300
vt 0.156300 0.843800
vt 0.000000 0.843800
vt 0.468800 0.875000
vt 0.343800 0.875000
vt 0.250000 0.843800
vt 0.000000 0.531300
vt 0.156300 0.531300
vt 0.156300 0.843800
vt 0.000000 0.843800
vt 0.000000 0.531300
vt 0.156300 0.531300
vt 0.156300 0.843800
vt 0.000000 0.843800
vt 0.000000 0.531300
vt 0.156300 0.531300
vt 0.156300 0.843800
vt 0.000000 0.843800
vt 0.218800 0.750000
vt 0.218800 0.625000
vn 0.000000 1.000000 0.000000
vn -0.530700 0.000000 0.847600
vn 0.000000 0.000000 1.000000
vn 0.530700 0.000000 0.847600
vn -0.307500 0.815000 0.491200
vn 0.000000 0.856500 0.516200
vn 0.307500 0.815000 0.491200
vn 0.847600 0.000000 0.530600
vn 0.847500 -0.000000 0.530800
vn 0.847600 0.000000 0.530700
vn 1.000000 0.000000 0.000000
vn 0.847700 0.000000 -0.530500
vn 0.847600 -0.000000 -0.530700
vn 0.491200 0.815000 0.307500
vn 0.516200 0.856500 -0.000000
vn 0.491200 0.815000 -0.307500
vn 0.530700 0.000000 -0.847600
vn 0.530600 0.000000 -0.847600
vn 0.000000 0.000000 -1.000000
vn -0.530700 0.000000 -0.847600
vn -0.530600 -0.000000 -0.847600
vn 0.307500 0.815000 -0.491200
vn -0.000000 0.856500 -0.516200
vn -0.307500 0.815000 -0.491200
vn -0.847600 0.000000 -0.530700
vn -1.000000 0.000000 0.000000
vn -0.847600 0.000000 0.530700
vn -0.847600 -0.000000 0.530600
vn -0.491200 0.815000 -0.307500
vn -0.516200 0.856500 0.000000
vn -0.491200 0.815000 0.307500
usemtl glass_bell
s 1
f 1/1/1 2/2/1 3/3/1
f 3/3/1 4/4/1 1/1/1
f 5/5/2 6/6/2 7/7/2
f 7/7/2 8/8/2 5/5/2
f 6/9/3 9/10/3 10/11/3
f 10/11/3 7/12/3 6/9/3
f 9/13/4 11/14/4 12/15/4
f 12/15/4 10/16/4 9/13/4
f 8/17/5 7/18/5 1/1/5
f 7/18/6 10/19/6 2/2/6
f 2/2/6 1/1/6 7/18/6
f 10/19/7 12/20/7 2/2/7
f 11/21/8 13/22/8 14/23/9
f 14/23/9 12/24/10 11/21/8
f 13/25/11 15/26/11 16/27/11
f 16/27/11 14/28/11 13/25/11
f 15/29/12 17/30/13 18/31/13
f 18/31/13 16/32/13 15/29/12
f 12/20/14 14/33/14 2/2/14
f 14/33/15 16/34/15 3/3/15
f 3/3/15 2/2/15 14/33/15
f 16/34/16 18/35/16 3/3/16
f 17/36/17 19/37/18 20/38/17
f 20/38/17 18/39/18 17/36/17
f 19/40/19 21/41/19 22/42/19
f 22/42/19 20/43/19 19/40/19
f 21/44/20 23/45/21 24/46/20
f 24/46/20 22/47/20 21/44/20
f 18/35/22 20/48/22 3/3/22
f 20/48/23 22/49/23 4/4/23
f 4/4/23 3/3/23 20/48/23
f 22/49/24 24/50/24 4/4/24
f 23/51/25 25/52/25 26/53/25
f 26/53/25 24/54/25 23/51/25
f 25/55/26 27/56/26 28/57/26
f 28/57/26 26/58/26 25/55/26
f 27/59/27 5/60/27 8/61/27
f 8/61/27 28/62/28 27/59/27
f 24/50/29 26/63/29 4/4/29
f 26/63/30 28/64/30 1/1/30
f 1/1/30 4/4/30 26/63/30
f 28/64/31 8/17/31 1/1/31
o glass_bell_dup_Dome.001
v 0.376800 0.660000 0.623200
v 0.623200 0.660000 0.623200
v 0.623200 0.660000 0.376800
v 0.376800 0.660000 0.376800
v 0.225400 0.000000 0.774600
v 0.376800 0.000000 0.869500
v 0.376800 0.534400 0.869500
v 0.225400 0.534400 0.774600
v 0.623200 0.000000 0.869500
v 0.623200 0.534400 0.869500
v 0.774600 0.000000 0.774600
v 0.774600 0.534400 0.774600
v 0.869500 0.000000 0.623200
v 0.869500 0.534400 0.623200
v 0.869500 0.000000 0.376800
v 0.869500 0.534400 0.376800
v 0.774600 0.000000 0.225400
v 0.774600 0.534400 0.225400
v 0.623200 0.000000 0.130500
v 0.623200 0.534400 0.130500
v 0.376800 0.000000 0.130500
v 0.376800 0.534400 0.130500
v 0.225400 0.000000 0.225400
v 0.225400 0.534400 0.225400
v 0.130500 0.000000 0.376800
v 0.130500 0.534400 0.376800
v 0.130500 0.000000 0.623200
v 0.130500 0.534400 0.623200
vt 0.343800 0.625000
vt 0.468800 0.750000
vt 0.468800 0.625000
vt 0.343800 0.750000
vt 0.000000 0.531300
vt 0.156300 0.843800
vt 0.156300 0.531300
vt 0.000000 0.843800
vt 0.000000 0.531300
vt 0.156300 0.843800
vt 0.156300 0.531300
vt 0.000000 0.843800
vt 0.000000 0.531300
vt 0.156300 0.843800
vt 0.156300 0.531300
vt 0.000000 0.843800
vt 0.250000 0.531300
vt 0.343800 0.500000
vt 0.468800 0.500000
vt 0.562500 0.531300
vt 0.000000 0.531300
vt 0.156300 0.843800
vt 0.156300 0.531300
vt 0.000000 0.843800
vt 0.000000 0.531300
vt 0.156300 0.843800
vt 0.156300 0.531300
vt 0.000000 0.843800
vt 0.000000 0.531300
vt 0.156300 0.843800
vt 0.156300 0.531300
vt 0.000000 0.843800
vt 0.593800 0.625000
vt 0.593800 0.750000
vt 0.562500 0.843800
vt 0.000000 0.531300
vt 0.156300 0.843800
vt 0.156300 0.531300
vt 0.000000 0.843800
vt 0.000000 0.531300
vt 0.156300 0.843800
vt 0.156300 0.531300
vt 0.000000 0.843800
vt 0.000000 0.531300
vt 0.156300 0.843800
vt 0.156300 0.531300
vt 0.000000 0.843800
vt 0.468800 0.875000
vt 0.343800 0.875000
vt 0.250000 0.843800
vt 0.000000 0.531300
vt 0.156300 0.843800
vt 0.156300 0.531300
vt 0.000000 0.843800
vt 0.000000 0.531300
vt 0.156300 0.843800
vt 0.156300 0.531300
vt 0.000000 0.843800
vt 0.000000 0.531300
vt 0.156300 0.843800
vt 0.156300 0.531300
vt 0.000000 0.843800
vt 0.218800 0.750000
vt 0.218800 0.625000
vn 0.000000 -1.000000 0.000000
vn 0.531100 0.000500 -0.847300
vn 0.531100 -0.000500 -0.847300
vn 0.000000 0.000000 -1.000000
vn -0.531100 -0.000500 -0.847300
vn -0.531100 0.000500 -0.847300
vn 0.216600 -0.846500 -0.486300
vn 0.258600 -0.891900 -0.370900
vn 0.346400 -0.835900 -0.425900
vn -0.070700 -0.888600 -0.453200
vn 0.070700 -0.888600 -0.453200
vn -0.346400 -0.835900 -0.425900
vn -0.258600 -0.891900 -0.370900
vn -0.216600 -0.846500 -0.486300
vn -0.847300 0.000600 -0.531100
vn -0.847300 0.000300 -0.531100
vn -0.847300 -0.000600 -0.531100
vn -0.847300 -0.000500 -0.531100
vn -1.000000 0.000000 0.000000
vn -0.847300 -0.000700 0.531100
vn -0.847300 -0.000500 0.531100
vn -0.847300 0.000500 0.531100
vn -0.486300 -0.846500 -0.216600
vn -0.370900 -0.891900 -0.258600
vn -0.425900 -0.835900 -0.346400
vn -0.453200 -0.888600 0.070700
vn -0.453200 -0.888600 -0.070700
vn -0.425900 -0.835900 0.346400
vn -0.370900 -0.891900 0.258600
vn -0.486300 -0.846500 0.216600
vn -0.531100 0.000500 0.847300
vn -0.531100 -0.000600 0.847300
vn 0.000000 0.000000 1.000000
vn 0.531100 -0.000500 0.847300
vn 0.531100 0.000600 0.847300
vn 0.531100 0.000500 0.847300
vn -0.216600 -0.846500 0.486300
vn -0.258600 -0.891900 0.370900
vn -0.346400 -0.835900 0.425900
vn 0.070700 -0.888600 0.453200
vn -0.070700 -0.888600 0.453200
vn 0.346400 -0.835900 0.425900
vn 0.258600 -0.891900 0.370900
vn 0.216600 -0.846500 0.486300
vn 0.847300 0.000500 0.531100
vn 0.847300 -0.000500 0.531100
vn 1.000000 0.000000 0.000000
vn 0.847300 -0.000500 -0.531100
vn 0.847300 0.000500 -0.531100
vn 0.847300 0.000600 -0.531100
vn 0.486300 -0.846500 0.216600
vn 0.370900 -0.891900 0.258600
vn 0.425900 -0.835900 0.346400
vn 0.453200 -0.888600 -0.070700
vn 0.453200 -0.888600 0.070700
vn 0.425900 -0.835900 -0.346400
vn 0.370900 -0.891900 -0.258600
vn 0.486300 -0.846500 -0.216600
usemtl glass_bell.001
s 1
f 29/65/32 31/66/32 30/67/32
f 31/66/32 29/65/32 32/68/32
f 33/69/33 35/70/33 34/71/34
f 35/70/33 33/69/33 36/72/34
f 34/73/35 38/74/35 37/75/35
f 38/74/35 34/73/35 35/76/35
f 37/77/36 40/78/36 39/79/37
f 40/78/36 37/77/36 38/80/37
f 36/81/38 29/65/39 35/82/40
f 35/82/41 30/67/41 38/83/42
f 30/67/41 35/82/41 29/65/42
f 38/83/43 30/67/44 40/84/45
f 39/85/46 42/86/47 41/87/48
f 42/86/47 39/85/46 40/88/49
f 41/89/50 44/90/50 43/91/50
f 44/90/50 41/89/50 42/92/50
f 43/93/51 46/94/52 45/95/53
f 46/94/52 43/93/51 44/96/53
f 40/84/54 30/67/55 42/97/56
f 42/97/57 31/66/57 44/98/58
f 31/66/57 42/97/57 30/67/58
f 44/98/59 31/66/60 46/99/61
f 45/100/62 48/101/62 47/102/63
f 48/101/62 45/100/62 46/103/63
f 47/104/64 50/105/64 49/106/64
f 50/105/64 47/104/64 48/107/64
f 49/108/65 52/109/65 51/110/66
f 52/109/65 49/108/65 50/111/67
f 46/99/68 31/66/69 48/112/70
f 48/112/71 32/68/71 50/113/72
f 32/68/71 48/112/71 31/66/72
f 50/113/73 32/68/74 52/114/75
f 51/115/76 54/116/76 53/117/77
f 54/116/76 51/115/76 52/118/77
f 53/119/78 56/120/78 55/121/78
f 56/120/78 53/119/78 54/122/78
f 55/123/79 36/124/79 33/125/80
f 36/124/79 55/123/79 56/126/81
f 52/114/82 32/68/83 54/127/84
f 54/127/85 29/65/85 56/128/86
f 29/65/85 54/127/85 32/68/86
f 56/128/87 29/65/88 36/81/89
