# Blender v2.77 (sub 0) OBJ File: 'research_station.blend'
# www.blender.org
mtllib research_station.mtl
o table_Table_Top
v 0.500000 0.459900 0.523400
v 0.395700 0.460800 0.523400
v 0.346200 0.225100 0.523400
v 0.500000 0.225100 0.523400
v 0.037400 0.107400 0.523400
v 0.009700 0.008500 0.523400
v 0.142000 0.008500 0.523400
v 0.148200 0.184600 0.523400
v 0.227000 0.158400 0.523400
v 0.321000 0.008500 0.523400
v 0.500000 0.685500 0.523400
v 0.368700 0.686000 0.523400
v 0.227000 0.158400 0.476600
v 0.346200 0.225100 0.476600
v 0.321000 0.008500 0.476600
v 0.037400 0.107400 0.476600
v 0.148200 0.184600 0.476600
v 0.142000 0.008500 0.476600
v 0.009700 0.008500 0.476600
v 0.395700 0.460800 0.476600
v 0.368700 0.686000 0.476600
v 0.500000 0.685500 0.476600
v 0.500000 0.459900 0.476600
v 0.252500 0.911200 0.523400
v 0.252500 0.911200 0.476600
v 0.500000 0.008500 0.476600
v 0.500000 0.008500 0.523400
v 0.653800 0.225100 0.523400
v 0.604300 0.460800 0.523400
v 0.962600 0.107400 0.523400
v 0.851800 0.184600 0.523400
v 0.858000 0.008500 0.523400
v 0.990300 0.008500 0.523400
v 0.773000 0.158400 0.523400
v 0.679000 0.008500 0.523400
v 0.631300 0.686000 0.523400
v 0.773000 0.158400 0.476600
v 0.679000 0.008500 0.476600
v 0.653800 0.225100 0.476600
v 0.962600 0.107400 0.476600
v 0.990300 0.008500 0.476600
v 0.858000 0.008500 0.476600
v 0.851800 0.184600 0.476600
v 0.631300 0.686000 0.476600
v 0.604300 0.460800 0.476600
v 0.747500 0.911200 0.523400
v 0.747500 0.911200 0.476600
v 0.500000 0.911200 0.523400
v 0.500000 0.911200 0.476600
v 0.500000 0.225100 0.476600
v 1.000000 0.900000 0.500000
v 0.853600 0.900000 0.146400
v 0.853600 1.000000 0.146400
v 1.000000 1.000000 0.500000
v 0.500000 0.900000 0.000000
v 0.500000 1.000000 0.000000
v 0.146400 0.900000 0.146400
v 0.146400 1.000000 0.146400
v 0.000000 0.900000 0.500000
v 0.000000 1.000000 0.500000
v 0.146400 0.900000 0.853600
v 0.146400 1.000000 0.853600
v 0.500000 0.900000 1.000000
v 0.500000 1.000000 1.000000
v 0.853600 0.900000 0.853600
v 0.853600 1.000000 0.853600
v 0.500000 0.900000 0.500000
v 0.500000 1.000000 0.500000
v 0.523400 0.459900 0.500000
v 0.523400 0.460800 0.604300
v 0.523400 0.225100 0.653800
v 0.523400 0.225100 0.500000
v 0.523400 0.107400 0.962600
v 0.523400 0.008500 0.990300
v 0.523400 0.008500 0.858000
v 0.523400 0.184600 0.851800
v 0.523400 0.158400 0.773000
v 0.523400 0.008500 0.679000
v 0.523400 0.685500 0.500000
v 0.523400 0.686000 0.631300
v 0.476600 0.158400 0.773000
v 0.476600 0.225100 0.653800
v 0.476600 0.008500 0.679000
v 0.476600 0.107400 0.962600
v 0.476600 0.184600 0.851800
v 0.476600 0.008500 0.858000
v 0.476600 0.008500 0.990300
v 0.476600 0.460800 0.604300
v 0.476600 0.686000 0.631300
v 0.476600 0.685500 0.500000
v 0.476600 0.459900 0.500000
v 0.523400 0.911200 0.747500
v 0.476600 0.911200 0.747500
v 0.476600 0.008500 0.500000
v 0.523400 0.008500 0.500000
v 0.523400 0.225100 0.346200
v 0.523400 0.460800 0.395700
v 0.523400 0.107400 0.037400
v 0.523400 0.184600 0.148200
v 0.523400 0.008500 0.142000
v 0.523400 0.008500 0.009700
v 0.523400 0.158400 0.227000
v 0.523400 0.008500 0.321000
v 0.523400 0.686000 0.368700
v 0.476600 0.158400 0.227000
v 0.476600 0.008500 0.321000
v 0.476600 0.225100 0.346200
v 0.476600 0.107400 0.037400
v 0.476600 0.008500 0.009700
v 0.476600 0.008500 0.142000
v 0.476600 0.184600 0.148200
v 0.476600 0.686000 0.368700
v 0.476600 0.460800 0.395700
v 0.523400 0.911200 0.252500
v 0.476600 0.911200 0.252500
v 0.523400 0.911200 0.500000
v 0.476600 0.911200 0.500000
v 0.476600 0.225100 0.500000
vt 0.671900 0.359400
vt 0.609400 0.359400
vt 0.562500 0.218800
vt 0.671900 0.218800
vt 0.375000 0.140600
vt 0.359400 0.062500
vt 0.453100 0.062500
vt 0.453100 0.187500
vt 0.500000 0.171900
vt 0.562500 0.062500
vt 0.671900 0.515600
vt 0.578100 0.515600
vt 0.843800 0.171900
vt 0.781300 0.218800
vt 0.781300 0.062500
vt 0.968800 0.140600
vt 0.890600 0.187500
vt 0.890600 0.062500
vt 0.984400 0.062500
vt 0.734400 0.359400
vt 0.765600 0.515600
vt 0.671900 0.515600
vt 0.671900 0.359400
vt 0.937500 -0.000000
vt 0.937500 0.031300
vt 0.843800 0.031300
vt 0.843800 -0.000000
vt 0.000000 0.031300
vt 0.000000 -0.000000
vt 0.093800 -0.000000
vt 0.093800 0.031300
vt 0.187500 -0.000000
vt 0.187500 0.031300
vt 0.312500 -0.000000
vt 0.312500 0.031300
vt 0.718800 -0.000000
vt 0.718800 0.031300
vt 0.500000 0.031300
vt 0.500000 -0.000000
vt 0.250000 -0.000000
vt 0.250000 0.031300
vt 0.031300 0.031300
vt 0.031300 -0.000000
vt 0.437500 0.031300
vt 0.437500 -0.000000
vt 0.625000 -0.000000
vt 0.625000 0.031300
vt 0.812500 -0.000000
vt 0.812500 0.031300
vt 0.937500 -0.000000
vt 0.937500 0.031300
vt 0.781300 0.218800
vt 0.734400 0.359400
vt 0.968800 0.140600
vt 0.890600 0.187500
vt 0.890600 0.062500
vt 0.984400 0.062500
vt 0.843800 0.171900
vt 0.781300 0.062500
vt 0.765600 0.515600
vt 0.500000 0.171900
vt 0.562500 0.062500
vt 0.562500 0.218800
vt 0.375000 0.140600
vt 0.359400 0.062500
vt 0.453100 0.062500
vt 0.453100 0.187500
vt 0.578100 0.515600
vt 0.609400 0.359400
vt 0.937500 0.031300
vt 0.843800 0.031300
vt 0.843800 -0.000000
vt 0.937500 -0.000000
vt 0.906300 0.031300
vt 0.812500 0.031300
vt 0.812500 -0.000000
vt 0.906300 -0.000000
vt 0.718800 0.031300
vt 0.718800 -0.000000
vt 0.593800 0.031300
vt 0.593800 -0.000000
vt 0.718800 0.031300
vt 0.500000 0.031300
vt 0.500000 -0.000000
vt 0.718800 -0.000000
vt 0.031300 -0.000000
vt 0.250000 -0.000000
vt 0.250000 0.031300
vt 0.031300 0.031300
vt 0.281300 0.031300
vt 0.281300 -0.000000
vt 0.093800 0.031300
vt 0.093800 -0.000000
vt -0.000000 0.031300
vt -0.000000 -0.000000
vt 0.671900 0.687500
vt 0.500000 0.687500
vt 0.843800 0.687500
vt 0.671900 0.687500
vt 0.625000 0.359400
vt 0.656300 0.359400
vt 0.656300 0.515600
vt 0.625000 0.515600
vt 0.843800 0.687500
vt 0.500000 0.687500
vt 0.625000 0.359400
vt 0.656300 0.359400
vt 0.656300 0.515600
vt 0.625000 0.515600
vt 0.671900 0.062500
vt 0.671900 0.218800
vt 0.671900 0.062500
vt 0.000000 0.375000
vt 0.343800 0.375000
vt 0.343800 0.468800
vt -0.000000 0.468800
vt 0.000000 0.375000
vt 0.343800 0.375000
vt 0.343800 0.468800
vt -0.000000 0.468800
vt 0.000000 0.375000
vt 0.343800 0.375000
vt 0.343800 0.468800
vt -0.000000 0.468800
vt 0.000000 0.375000
vt 0.343800 0.375000
vt 0.343800 0.468800
vt -0.000000 0.468800
vt 0.000000 0.375000
vt 0.343800 0.375000
vt 0.343800 0.468800
vt -0.000000 0.468800
vt 0.000000 0.375000
vt 0.343800 0.375000
vt 0.343800 0.468800
vt -0.000000 0.468800
vt 0.000000 0.375000
vt 0.343800 0.375000
vt 0.343800 0.468800
vt -0.000000 0.468800
vt 0.000000 0.375000
vt 0.343800 0.375000
vt 0.343800 0.468800
vt -0.000000 0.468800
vt 0.062500 0.937500
vt 0.000000 0.750000
vt 0.250000 0.750000
vt 0.250000 1.000000
vt 0.437500 0.937500
vt 0.500000 0.750000
vt 0.437500 0.562500
vt 0.250000 0.500000
vt 0.062500 0.562500
vt 0.500000 0.750000
vt 0.437500 0.937500
vt 0.250000 0.750000
vt 0.250000 1.000000
vt 0.062500 0.937500
vt 0.000000 0.750000
vt 0.062500 0.562500
vt 0.250000 0.500000
vt 0.437500 0.562500
vt 0.671900 0.359400
vt 0.609400 0.359400
vt 0.562500 0.218800
vt 0.671900 0.218800
vt 0.375000 0.140600
vt 0.359400 0.062500
vt 0.453100 0.062500
vt 0.453100 0.187500
vt 0.500000 0.171900
vt 0.562500 0.062500
vt 0.671900 0.515600
vt 0.578100 0.515600
vt 0.843800 0.171900
vt 0.781300 0.218800
vt 0.781300 0.062500
vt 0.968800 0.140600
vt 0.890600 0.187500
vt 0.890600 0.062500
vt 0.984400 0.062500
vt 0.734400 0.359400
vt 0.765600 0.515600
vt 0.671900 0.515600
vt 0.671900 0.359400
vt 0.937500 -0.000000
vt 0.937500 0.031300
vt 0.843800 0.031300
vt 0.843800 -0.000000
vt 0.906300 -0.000000
vt 0.906300 0.031300
vt 0.812500 0.031300
vt 0.812500 -0.000000
vt 0.718800 0.031300
vt 0.718800 -0.000000
vt 0.593800 0.031300
vt 0.593800 -0.000000
vt 0.718800 -0.000000
vt 0.718800 0.031300
vt 0.500000 0.031300
vt 0.500000 -0.000000
vt 0.250000 -0.000000
vt 0.250000 0.031300
vt 0.031300 0.031300
vt 0.031300 -0.000000
vt 0.437500 0.031300
vt 0.437500 -0.000000
vt 0.625000 -0.000000
vt 0.625000 0.031300
vt 0.812500 -0.000000
vt 0.812500 0.031300
vt 0.937500 -0.000000
vt 0.937500 0.031300
vt 0.781300 0.218800
vt 0.734400 0.359400
vt 0.968800 0.140600
vt 0.890600 0.187500
vt 0.890600 0.062500
vt 0.984400 0.062500
vt 0.843800 0.171900
vt 0.781300 0.062500
vt 0.765600 0.515600
vt 0.500000 0.171900
vt 0.562500 0.062500
vt 0.562500 0.218800
vt 0.375000 0.140600
vt 0.359400 0.062500
vt 0.453100 0.062500
vt 0.453100 0.187500
vt 0.578100 0.515600
vt 0.609400 0.359400
vt 0.937500 0.031300
vt 0.843800 0.031300
vt 0.843800 -0.000000
vt 0.937500 -0.000000
vt -0.000000 -0.000000
vt 0.093800 -0.000000
vt 0.093800 0.031300
vt -0.000000 0.031300
vt 0.187500 -0.000000
vt 0.187500 0.031300
vt 0.281300 -0.000000
vt 0.281300 0.031300
vt 0.718800 0.031300
vt 0.500000 0.031300
vt 0.500000 -0.000000
vt 0.718800 -0.000000
vt 0.031300 -0.000000
vt 0.250000 -0.000000
vt 0.250000 0.031300
vt 0.031300 0.031300
vt 0.281300 0.031300
vt 0.281300 -0.000000
vt 0.093800 0.031300
vt 0.093800 -0.000000
vt -0.000000 0.031300
vt -0.000000 -0.000000
vt 0.671900 0.687500
vt 0.500000 0.687500
vt 0.843800 0.687500
vt 0.671900 0.687500
vt 0.265600 0.031300
vt 0.265600 0.000000
vt 0.500000 0.000000
vt 0.500000 0.031300
vt 0.843800 0.687500
vt 0.500000 0.687500
vt 0.625000 0.359400
vt 0.656300 0.359400
vt 0.656300 0.515600
vt 0.625000 0.515600
vt 0.671900 0.062500
vt 0.671900 0.218800
vt 0.671900 0.062500
vn 0.000000 -0.000000 1.000000
vn -0.000000 0.000000 -1.000000
vn -0.962900 0.269700 0.000000
vn -0.572100 0.820200 0.000000
vn -0.571700 0.820500 0.000000
vn 0.314800 0.949200 0.000000
vn 0.314900 0.949100 0.000000
vn -0.487700 0.873000 0.000000
vn -0.487900 0.872900 0.000000
vn -0.978700 0.205200 0.000000
vn -0.978700 0.205100 -0.000000
vn -0.888700 -0.458500 0.000000
vn 0.000000 -1.000000 -0.000000
vn 0.962900 0.269700 0.000000
vn 0.962900 0.270000 0.000000
vn 0.571700 0.820500 0.000000
vn -0.314800 0.949200 0.000000
vn 0.487800 0.872900 0.000000
vn 0.487700 0.873000 -0.000000
vn 0.978700 0.205500 0.000000
vn 0.978700 0.205100 -0.000000
vn 0.888700 -0.458500 0.000000
vn -0.992900 -0.119000 0.000000
vn 0.992900 -0.119000 0.000000
vn 0.923900 0.000000 -0.382500
vn 0.383000 0.000000 -0.923800
vn 0.382500 0.000000 -0.923900
vn -0.382500 0.000000 -0.923900
vn -0.383000 0.000000 -0.923800
vn -0.923900 0.000000 -0.382500
vn -0.923900 0.000000 0.382500
vn -0.382500 0.000000 0.923900
vn -0.383000 0.000000 0.923800
vn 0.383000 0.000000 0.923800
vn 0.382500 0.000000 0.923900
vn 0.923900 0.000000 0.382500
vn 0.000000 1.000000 0.000000
vn 1.000000 -0.000000 0.000000
vn -1.000000 0.000000 0.000000
vn 0.000000 0.269700 0.962900
vn 0.000000 0.820200 0.572100
vn 0.000000 0.820500 0.571700
vn 0.000000 0.949100 -0.314900
vn -0.000000 0.949200 -0.314800
vn -0.000000 0.872900 0.487800
vn 0.000000 0.205200 0.978700
vn -0.000000 0.205100 0.978700
vn 0.000000 0.205500 0.978700
vn 0.000000 -0.458500 0.888700
vn 0.000000 0.269700 -0.962900
vn 0.000000 0.820200 -0.572100
vn 0.000000 0.820500 -0.571700
vn 0.000000 0.949100 0.314900
vn -0.000000 0.949200 0.314800
vn 0.000000 0.949200 0.314700
vn 0.000000 0.872900 -0.487800
vn 0.000000 0.205500 -0.978700
vn -0.000000 0.205100 -0.978700
vn 0.000000 -0.458500 -0.888700
vn 0.000000 -0.119000 0.992900
vn 0.000000 -0.119000 -0.992900
usemtl table
s 1
f 1/1/1 2/2/1 3/3/1
f 3/3/1 4/4/1 1/1/1
f 5/5/1 6/6/1 7/7/1
f 7/7/1 8/8/1 5/5/1
f 9/9/1 8/8/1 7/7/1
f 7/7/1 10/10/1 9/9/1
f 11/11/1 12/12/1 2/2/1
f 2/2/1 1/1/1 11/11/1
f 13/13/2 14/14/2 15/15/2
f 16/16/2 17/17/2 18/18/2
f 18/18/2 19/19/2 16/16/2
f 13/13/2 15/15/2 18/18/2
f 18/18/2 17/17/2 13/13/2
f 20/20/2 21/21/2 22/22/2
f 22/22/2 23/23/2 20/20/2
f 19/24/3 6/25/3 5/26/3
f 5/26/3 16/27/3 19/24/3
f 16/28/4 5/29/5 8/30/4
f 8/30/4 17/31/5 16/28/4
f 17/31/6 8/30/6 9/32/7
f 9/32/7 13/33/7 17/31/6
f 13/33/8 9/32/9 3/34/8
f 3/34/8 14/35/9 13/33/8
f 14/36/10 3/37/11 2/38/10
f 2/38/10 20/39/11 14/36/10
f 21/40/12 12/41/12 24/42/12
f 24/42/12 25/43/12 21/40/12
f 26/44/13 27/45/13 10/46/13
f 10/46/13 15/47/13 26/44/13
f 15/47/13 10/46/13 7/48/13
f 7/48/13 18/49/13 15/47/13
f 18/49/13 7/48/13 6/50/13
f 6/50/13 19/51/13 18/49/13
f 28/52/1 29/53/1 1/1/1
f 1/1/1 4/4/1 28/52/1
f 30/54/1 31/55/1 32/56/1
f 32/56/1 33/57/1 30/54/1
f 34/58/1 35/59/1 32/56/1
f 32/56/1 31/55/1 34/58/1
f 29/53/1 36/60/1 11/11/1
f 11/11/1 1/1/1 29/53/1
f 37/61/2 38/62/2 39/63/2
f 40/64/2 41/65/2 42/66/2
f 42/66/2 43/67/2 40/64/2
f 37/61/2 43/67/2 42/66/2
f 42/66/2 38/62/2 37/61/2
f 22/22/2 44/68/2 45/69/2
f 45/69/2 23/23/2 22/22/2
f 41/70/14 40/71/15 30/72/14
f 30/72/14 33/73/14 41/70/14
f 40/74/16 43/75/16 31/76/16
f 31/76/16 30/77/16 40/74/16
f 43/75/17 37/78/17 34/79/17
f 34/79/17 31/76/17 43/75/17
f 37/78/18 39/80/18 28/81/19
f 28/81/19 34/79/18 37/78/18
f 39/82/20 45/83/21 29/84/20
f 29/84/20 28/85/21 39/82/20
f 46/86/22 36/87/22 44/88/22
f 44/88/22 47/89/22 46/86/22
f 26/44/13 38/90/13 35/91/13
f 35/91/13 27/45/13 26/44/13
f 38/90/13 42/92/13 32/93/13
f 32/93/13 35/91/13 38/90/13
f 42/92/13 41/94/13 33/95/13
f 33/95/13 32/93/13 42/92/13
f 48/96/1 24/97/1 12/12/1
f 12/12/1 11/11/1 48/96/1
f 21/21/2 25/98/2 49/99/2
f 49/99/2 22/22/2 21/21/2
f 20/100/23 2/101/23 12/102/23
f 12/102/23 21/103/23 20/100/23
f 36/60/1 46/104/1 48/96/1
f 48/96/1 11/11/1 36/60/1
f 49/99/2 47/105/2 44/68/2
f 44/68/2 22/22/2 49/99/2
f 29/106/24 45/107/24 44/108/24
f 44/108/24 36/109/24 29/106/24
f 3/3/1 10/10/1 27/110/1
f 27/110/1 4/4/1 3/3/1
f 27/110/1 35/59/1 28/52/1
f 28/52/1 4/4/1 27/110/1
f 14/14/2 20/20/2 23/23/2
f 23/23/2 50/111/2 14/14/2
f 23/23/2 45/69/2 39/63/2
f 39/63/2 50/111/2 23/23/2
f 14/14/2 50/111/2 26/112/2
f 26/112/2 15/15/2 14/14/2
f 3/3/1 9/9/1 10/10/1
f 26/112/2 50/111/2 39/63/2
f 39/63/2 38/62/2 26/112/2
f 35/59/1 34/58/1 28/52/1
f 51/113/25 52/114/25 53/115/25
f 53/115/25 54/116/25 51/113/25
f 52/117/26 55/118/26 56/119/27
f 56/119/27 53/120/27 52/117/26
f 55/121/28 57/122/28 58/123/29
f 58/123/29 56/124/29 55/121/28
f 57/125/30 59/126/30 60/127/30
f 60/127/30 58/128/30 57/125/30
f 59/129/31 61/130/31 62/131/31
f 62/131/31 60/132/31 59/129/31
f 61/133/32 63/134/32 64/135/33
f 64/135/33 62/136/33 61/133/32
f 63/137/34 65/138/34 66/139/35
f 66/139/35 64/140/35 63/137/34
f 65/141/36 51/142/36 54/143/36
f 54/143/36 66/144/36 65/141/36
f 52/145/13 51/146/13 67/147/13
f 55/148/13 52/145/13 67/147/13
f 57/149/13 55/148/13 67/147/13
f 59/150/13 57/149/13 67/147/13
f 61/151/13 59/150/13 67/147/13
f 63/152/13 61/151/13 67/147/13
f 65/153/13 63/152/13 67/147/13
f 51/146/13 65/153/13 67/147/13
f 54/154/37 53/155/37 68/156/37
f 53/155/37 56/157/37 68/156/37
f 56/157/37 58/158/37 68/156/37
f 58/158/37 60/159/37 68/156/37
f 60/159/37 62/160/37 68/156/37
f 62/160/37 64/161/37 68/156/37
f 64/161/37 66/162/37 68/156/37
f 66/162/37 54/154/37 68/156/37
f 69/163/38 70/164/38 71/165/38
f 71/165/38 72/166/38 69/163/38
f 73/167/38 74/168/38 75/169/38
f 75/169/38 76/170/38 73/167/38
f 77/171/38 76/170/38 75/169/38
f 75/169/38 78/172/38 77/171/38
f 79/173/38 80/174/38 70/164/38
f 70/164/38 69/163/38 79/173/38
f 81/175/39 82/176/39 83/177/39
f 84/178/39 85/179/39 86/180/39
f 86/180/39 87/181/39 84/178/39
f 81/175/39 83/177/39 86/180/39
f 86/180/39 85/179/39 81/175/39
f 88/182/39 89/183/39 90/184/39
f 90/184/39 91/185/39 88/182/39
f 87/186/40 74/187/40 73/188/40
f 73/188/40 84/189/40 87/186/40
f 84/190/41 73/191/42 76/192/41
f 76/192/41 85/193/42 84/190/41
f 85/193/43 76/192/44 77/194/44
f 77/194/44 81/195/44 85/193/43
f 81/195/45 77/194/45 71/196/45
f 71/196/45 82/197/45 81/195/45
f 82/198/46 71/199/47 70/200/46
f 70/200/46 88/201/48 82/198/46
f 89/202/49 80/203/49 92/204/49
f 92/204/49 93/205/49 89/202/49
f 94/206/13 95/207/13 78/208/13
f 78/208/13 83/209/13 94/206/13
f 83/209/13 78/208/13 75/210/13
f 75/210/13 86/211/13 83/209/13
f 86/211/13 75/210/13 74/212/13
f 74/212/13 87/213/13 86/211/13
f 96/214/38 97/215/38 69/163/38
f 69/163/38 72/166/38 96/214/38
f 98/216/38 99/217/38 100/218/38
f 100/218/38 101/219/38 98/216/38
f 102/220/38 103/221/38 100/218/38
f 100/218/38 99/217/38 102/220/38
f 97/215/38 104/222/38 79/173/38
f 79/173/38 69/163/38 97/215/38
f 105/223/39 106/224/39 107/225/39
f 108/226/39 109/227/39 110/228/39
f 110/228/39 111/229/39 108/226/39
f 105/223/39 111/229/39 110/228/39
f 110/228/39 106/224/39 105/223/39
f 90/184/39 112/230/39 113/231/39
f 113/231/39 91/185/39 90/184/39
f 109/232/50 108/233/50 98/234/50
f 98/234/50 101/235/50 109/232/50
f 108/236/51 111/237/52 99/238/51
f 99/238/51 98/239/52 108/236/51
f 111/237/53 105/240/54 102/241/55
f 102/241/55 99/238/54 111/237/53
f 105/240/56 107/242/56 96/243/56
f 96/243/56 102/241/56 105/240/56
f 107/244/57 113/245/57 97/246/57
f 97/246/57 96/247/58 107/244/57
f 114/248/59 104/249/59 112/250/59
f 112/250/59 115/251/59 114/248/59
f 94/206/13 106/252/13 103/253/13
f 103/253/13 95/207/13 94/206/13
f 106/252/13 110/254/13 100/255/13
f 100/255/13 103/253/13 106/252/13
f 110/254/13 109/256/13 101/257/13
f 101/257/13 100/255/13 110/254/13
f 116/258/38 92/259/38 80/174/38
f 80/174/38 79/173/38 116/258/38
f 89/183/39 93/260/39 117/261/39
f 117/261/39 90/184/39 89/183/39
f 88/262/60 70/263/60 80/264/60
f 80/264/60 89/265/60 88/262/60
f 104/222/38 114/266/38 116/258/38
f 116/258/38 79/173/38 104/222/38
f 117/261/39 115/267/39 112/230/39
f 112/230/39 90/184/39 117/261/39
f 97/268/61 113/269/61 112/270/61
f 112/270/61 104/271/61 97/268/61
f 71/165/38 78/172/38 95/272/38
f 95/272/38 72/166/38 71/165/38
f 95/272/38 103/221/38 96/214/38
f 96/214/38 72/166/38 95/272/38
f 82/176/39 88/182/39 91/185/39
f 91/185/39 118/273/39 82/176/39
f 91/185/39 113/231/39 107/225/39
f 107/225/39 118/273/39 91/185/39
f 82/176/39 118/273/39 94/274/39
f 94/274/39 83/177/39 82/176/39
f 71/165/38 77/171/38 78/172/38
f 94/274/39 118/273/39 107/225/39
f 107/225/39 106/224/39 94/274/39
f 103/221/38 102/220/38 96/214/38
